<?xml version="1.0" encoding="utf-8"?>
<!-- Generator: Adobe Illustrator 27.8.0, SVG Export Plug-In . SVG Version: 6.00 Build 0)  -->
<svg version="1.1" id="Layer_1" xmlns="http://www.w3.org/2000/svg" xmlns:xlink="http://www.w3.org/1999/xlink" x="0px" y="0px"
	 viewBox="0 0 464.8 790.3" style="enable-background:new 0 0 464.8 790.3;" xml:space="preserve">
<style type="text/css">
	.st0{fill:#8DC63F;}
	.st1{fill:#0C3D60;}
	.st2{fill:#0B3C5F;}
</style>
<g>
	<path class="st0" d="M233.2,371v-0.3c-0.2,0-0.3,0-0.5,0C134,370.7,54,298.6,54,209.7c0-88.9,80-161,178.7-161
		c98.7,0,178.7,72.1,178.7,161c0,2.4-0.2,4.7-0.3,7.1C396,321,293.7,309.6,293.7,309.6c141.7,37.6,171.6-61.9,170.7-114.1
		c0.1-0.1,0.2-0.2,0.3-0.2c-0.1-1.7-0.3-3.3-0.5-5c-0.2-3.2-0.6-6.4-1.2-9.5C447.5,78.7,350.4,0,232.7,0C104.2,0,0,93.9,0,209.7
		c0,115.5,103.6,209.1,231.6,209.6v0.3c0.2,0,0.3,0,0.5,0c98.7,0,178.7,72.1,178.7,161s-80,161-178.7,161s-178.7-72.1-178.7-161
		c0-2.4,0.2-4.7,0.3-7.1C68.8,469.3,171,480.6,171,480.6C29.3,443-0.5,542.6,0.3,594.7c-0.1,0.1-0.2,0.1-0.3,0.2
		c0.1,1.7,0.3,3.3,0.5,5c0.2,3.2,0.6,6.4,1.2,9.5c15.6,102.1,112.7,180.9,230.4,180.9c128.5,0,232.7-93.9,232.7-209.7
		C464.8,465.1,361.2,371.5,233.2,371z"/>
	<g>
		<path class="st1" d="M137,280.1c0,0,27.2-48.2,103.8-36.5c76.6,11.7,92.5,3.9,105.7,0.4c0,0-10.1,57.1-77,40.8
			C202.7,268.4,178.2,259.1,137,280.1z"/>
		<path class="st2" d="M331.4,518.4c0,0-27.2,48.2-103.8,36.5c-76.6-11.7-92.5-3.9-105.7-0.4c0,0,10.1-57.1,77-40.8
			C265.7,530.1,290.2,539.4,331.4,518.4z"/>
		<rect x="212.4" y="264.5" class="st1" width="40.4" height="269.8"/>
	</g>
	<path class="st1" d="M234.5,113.4c76.8,0,140.4,51.2,151.5,117.9c1.1-6.7,1.7-13.6,1.7-20.7c0-76.5-68.6-138.6-153.2-138.6
		c-84.6,0-153.2,62.1-153.2,138.6c0,7,0.6,13.9,1.7,20.7C94,164.6,157.6,113.4,234.5,113.4z"/>
	<path class="st1" d="M234.5,677.1C157.6,677.1,94,625.9,83,559.2c-1.1,6.7-1.7,13.7-1.7,20.7c0,76.5,68.6,138.6,153.2,138.6
		s153.2-62,153.2-138.6c0-7-0.6-13.9-1.7-20.7C374.9,625.9,311.3,677.1,234.5,677.1z"/>
</g>
<g>
</g>
<g>
</g>
<g>
</g>
<g>
</g>
<g>
</g>
<g>
</g>
</svg>
