<?xml version="1.0" encoding="utf-8"?>
<!-- Generator: Adobe Illustrator 27.8.0, SVG Export Plug-In . SVG Version: 6.00 Build 0)  -->
<svg version="1.1" id="Layer_1" xmlns="http://www.w3.org/2000/svg" xmlns:xlink="http://www.w3.org/1999/xlink" x="0px" y="0px"
	 viewBox="0 0 1111.7 346.8" style="enable-background:new 0 0 1111.7 346.8;" xml:space="preserve">
<style type="text/css">
	.st0{fill:#8DC63F;}
	.st1{fill:#0C3D60;}
</style>
<g>
	<g>
		<g>
			<path class="st0" d="M31.3,151.1c1.2,0,2.6,1.9,2.4,3.1c-1.2,8.2,0.7,16.1,5.8,23.8c4.3,6.5,14,14.9,32,14.9
				c23.6,0,31.5-12.5,31.5-25.5c0-39-87.6-35.1-87.6-85.6c0-31.8,29.8-49.3,60.1-49.3c14.7,0,34.4,7,44.7,19.5
				c9.4,12-5.8,30.8-17.6,26.7c2.4-15.6-15.9-33.2-32.2-33.2c-16.4,0-28.1,11.5-28.1,26.9c0,39.7,87.6,30.6,87.6,84.7
				c0,33.4-31.5,51-61.8,51c-20.4,0-53.9-12.8-56.8-27.7C8.7,166.5,16.1,151.1,31.3,151.1z"/>
			<path class="st0" d="M261.3,135.4V178c0,17.6,9.1,24.5,9.1,24.5s0.7,0.2,0.7,1c0,0.5-0.5,1.2-1.2,1.2h-8.7
				c-7.9,0-14.9-3.4-19.7-8.9v0.2c-10.6,7-26,11.1-40.2,11.1c-27.2,0.2-50.5-14.7-50.5-34.9c0-20.4,15.9-27.4,36.1-32
				c13-2.9,39.9-9.6,43.8-22.6c5.3-18.8-21.4-30.3-36.6-23.3c-11.3,5.3-14.2,19.2-14.2,28.9c0,2.6,1,2.9-2.9,2.6
				c-19-0.7-20-20.4-13-29.1c6.5-7.5,20.9-15.9,39.9-15.9c16.1,0,36.6,7.5,47.6,20.9C258.6,110.2,261.3,124.1,261.3,135.4z
				 M235,138.6c-13.7,5.5-29.8,7.7-34.4,9.4c-11.1,3.6-20.9,11.1-20.9,24.3c0,13.5,11.1,23.8,24.5,23.8c12,0,24.5-7,30.8-18V138.6z"
				/>
			<path class="st0" d="M384.7,129.7c0-24.3-17.8-36.8-27.2-36.8c-6,0-18.5,1.9-26.2,18.5v66.4c0,14.9-11.8,26.7-26.2,26.7h-8.7
				c-0.7,0-1.2-0.7-1.2-1.2c0-0.7,0.7-1,0.7-1s9.1-7.2,9.1-24.5v-66.9c0-18.5-9.4-24.5-9.4-24.5s-0.7-0.5-0.7-1
				c0-0.5,0.5-1.2,1.2-1.2h8.7c7,0,13.5,2.9,18,7.5l0.2-0.2c12-7.2,26.5-10.3,40.7-10.3c21.4,0,47.2,17.3,47.2,46.9v49.8
				c0,17.8,9.1,24.5,9.1,24.5s0.7,0.2,0.7,1c0,0.5-0.5,1.2-1.2,1.2h-8.7c-14.4,0-26.2-11.8-26.2-26.7V129.7z"/>
			<path class="st0" d="M455.2,81.3c4.6,0,8.2,3.6,13,3.6c4.3,0,8.4-3.6,13.2-3.6c9.6,0,9.9,1.4,8.9,2.2c-5.3,4.1-8.9,13.2-8.9,24.3
				v90.5c-0.2,38.3-20.4,55.3-46.4,54.9c-31.5-0.5-28.1-25-22.9-19.2c6.3,6.7,14,5.1,18.8,5.1c7.9,0,24.1-9.6,24.3-40.7v-90.5
				c0-11.1-3.8-20.2-9.1-24.3C445.3,83,444.8,81.3,455.2,81.3z M452.5,47.4c0-7.5,31.3-7.5,31.3,0c0,7.5-7,18.5-15.6,18.5
				S452.5,54.9,452.5,47.4z"/>
			<path class="st0" d="M625.8,171.1c-0.7,23.6-28.9,36.8-53.4,36.8c-34.2,0-60.6-26.2-60.6-63.5c0-30.8,21.4-63.8,59.4-63.8
				c26,0,50.5,13.7,51.2,33.9c1.2,27.2-42.1,32-55.6,34.4c-8.4,1.4-20.7,9.6-23.6,15.6c3.4,19.7,14.9,31.5,29.4,31.5
				c15.2,0,31-14,31-26.2c0-5.5-1.2-11.1-4.1-15.2c1.4-0.5,3.4-0.7,4.8-0.7C613.5,154,625.5,161.7,625.8,171.1z M540.6,145.8
				c3.1-3.1,8.4-4.1,14-5.3c7.5-1.9,26.2-7.9,31.8-11.3c5.8-3.4,9.9-9.4,9.9-16.6c0-15.6-14.7-23.1-28.9-20
				C549.5,96.7,540.6,117.9,540.6,145.8z"/>
			<path class="st0" d="M755.9,171.1c-0.7,23.6-28.9,36.8-53.4,36.8c-34.2,0-60.6-26.2-60.6-63.5c0-30.8,21.4-63.8,59.4-63.8
				c26,0,50.5,13.7,51.2,33.9c1.2,27.2-42.1,32-55.6,34.4c-8.4,1.4-20.7,9.6-23.6,15.6c3.4,19.7,14.9,31.5,29.4,31.5
				c15.2,0,31-14,31-26.2c0-5.5-1.2-11.1-4.1-15.2c1.4-0.5,3.4-0.7,4.8-0.7C743.6,154,755.7,161.7,755.9,171.1z M670.7,145.8
				c3.1-3.1,8.4-4.1,14-5.3c7.5-1.9,26.2-7.9,31.8-11.3c5.8-3.4,9.9-9.4,9.9-16.6c0-15.6-14.7-23.1-28.9-20
				C679.6,96.7,670.7,117.9,670.7,145.8z"/>
			<path class="st0" d="M890.1,85.4c-9.6,2.6-13.7,14-18.5,25.7l-29.8,77.7c-1,2.4-2.2,8.7,3.1,13.2c0.2,0.2,0.7,1.2,0.7,1.4
				c0,0.5-0.5,1.2-1.2,1.2l-9.1-0.2c-10.8-0.5-21.2-6.7-26.5-20l-26.9-71.2c-3.8-10.1-10.3-26.7-19-26.7c-0.5-0.2-1.9-0.7,0.2-2.6
				c1.2-1,3.6-1.4,12.5-1.4c19.5,0,27.7,14,34.2,30.3l19.7,56.5l28.1-71c4.8-11.3,15.4-15.9,22.6-15.9c8.2,0,7.7,0.2,9.4,1.7
				C890.1,84.7,890.4,85.2,890.1,85.4z"/>
			<path class="st0" d="M992.4,129.7c0-24.3-17.8-36.8-27.2-36.8c-6,0-18.5,1.9-26.2,18.5v66.4c0,14.9-11.8,26.7-26.2,26.7h-8.7
				c-0.7,0-1.2-0.7-1.2-1.2c0-0.7,0.7-1,0.7-1s9.1-7.2,9.1-24.5v-66.9c0-18.5-9.4-24.5-9.4-24.5s-0.7-0.5-0.7-1
				c0-0.5,0.5-1.2,1.2-1.2h8.7c7,0,13.5,2.9,18,7.5l0.2-0.2c12-7.2,26.5-10.3,40.7-10.3c21.4,0,47.2,17.3,47.2,46.9v49.8
				c0,17.8,9.1,24.5,9.1,24.5s0.7,0.2,0.7,1c0,0.5-0.5,1.2-1.2,1.2h-8.7c-14.4,0-26.2-11.8-26.2-26.7V129.7z"/>
			<path class="st0" d="M1098.2,203.3c0,0.5-0.5,1.2-1.2,1.2h-8.4c-14.7,0-26.2-11.8-26.2-26.2v-71c0-11.1-3.8-20.2-9.1-24.3
				c-0.7-0.5-1.2-2.2,9.1-2.2c4.6,0,8.4,3.6,13.2,3.6c4.3,0,8.2-3.6,13-3.6c9.4,0,9.9,1.4,8.9,2.2c-5.3,4.1-8.9,13.2-8.9,24.3V178
				c0,11.1,3.6,20.2,8.9,24.3C1097.8,202.6,1098.2,202.8,1098.2,203.3z M1060,46.9c0-7.5,31.3-7.5,31.3,0c0,7.5-7,18.5-15.6,18.5
				S1060,54.4,1060,46.9z"/>
		</g>
	</g>
	<g>
		<g>
			<path class="st1" d="M175.8,325.2c0.3,0.3,0.6,0.4,0.6,0.7c0,0.2-0.2,0.3-0.4,0.3h-3.3c-1.8,0-3.3-1-5-1c-1.7,0-3.1,1-4.9,1h-3.3
				c-0.3,0-0.4-0.2-0.4-0.3c0-0.3,0.3-0.4,0.6-0.7c1.9-1.7,3.1-4.8,3.1-9V277c-0.1-3.4-1-6.7-3.1-8.6c-0.3-0.3-0.6-0.4-0.6-0.7
				c0-0.2,0.2-0.3,0.4-0.3h3.3c1.8,0,3.2,1,4.9,1c1.8,0,3.1-1,5-1h3.3c0.3,0,0.4,0.2,0.4,0.3c0,0.3-0.3,0.4-0.6,0.7
				c-2.1,1.8-3,5.1-3.1,8.6v39.2C172.7,320.4,173.9,323.5,175.8,325.2z"/>
			<path class="st1" d="M232.3,275.9c-0.2-2.6-0.9-6.1-3.1-7.7l-0.3-0.3c0-0.2,0.2-0.4,0.3-0.4h3.1c6.2,0,11.3,2.9,14.4,8.1
				l20.6,34.5v-34.2c0-6.3,4.7-8.1,7.7-8.4h2.3c0.2,0,0.3,0.3,0.3,0.4c0,0.1-0.2,0.3-0.3,0.3c-1.8,1.3-2.9,4.1-3.1,7.5V317
				c0,4.3,1,7.1,3,8.3c0.1,0.1,0.2,0.4,0.2,0.5c0,0.2-0.1,0.4-0.3,0.4h-2.9c-3.4-0.3-8-1.5-11.2-6.8l-23.8-39.3v37.7
				c0,6.3-4.7,8.1-7.7,8.4h-2.3c-0.2,0-0.3-0.3-0.3-0.4c0-0.1,0.2-0.3,0.3-0.3c1.8-1.3,2.9-4.1,3.1-7.5V275.9z"/>
			<path class="st1" d="M336.2,307.5c0.4,0,0.9,0.7,0.8,1.1c-0.4,2.9,0.3,5.6,2,8.3c1.5,2.3,4.9,5.2,11.2,5.2c8.2,0,11-4.4,11-8.9
				c0-13.6-30.6-12.3-30.6-29.9c0-11.1,10.4-17.2,21-17.2c5.1,0,12,2.4,15.6,6.8c3.3,4.2-2,10.7-6.1,9.3c0.8-5.5-5.5-11.6-11.2-11.6
				c-5.7,0-9.8,4-9.8,9.4c0,13.9,30.6,10.7,30.6,29.6c0,11.7-11,17.8-21.6,17.8c-7.1,0-18.8-4.5-19.8-9.7
				C328.3,312.9,330.9,307.5,336.2,307.5z"/>
			<path class="st1" d="M473.1,268.2c-1.8,1.4-3.1,4.6-3.2,8.6v27.6c0,9.6-5,22.9-22.6,22.9c-16.5,0-22.6-12.2-22.6-23v-27
				c0-4.1-1.4-7.6-3.4-9.1c-0.1-0.1-0.3-0.3-0.3-0.3c0-0.2,0.2-0.4,0.4-0.4h3.2c5.4,0,9.7,4.4,9.8,9.8v27.1
				c0,10.8,6.6,17.7,14.2,17.7c7.3,0,14.2-6.6,14.2-17.6v-31.1c0-3,3.4-5.9,7-5.9h3.1c0.2,0,0.3,0.3,0.3,0.4
				C473.3,267.9,473.2,268.1,473.1,268.2z"/>
			<path class="st1" d="M532.4,268.8c2.4-1.6,7.8-2.5,12.1-2.5c10.6,0.1,20.7,4.9,20.1,15.3c-0.4,7.4-5.5,11.3-11.6,13.3
				c9.1,5.1,10.4,15,13.3,21.2c1.8,3.9,4.6,7.4,7.1,9.1c0.3,0.3,0.7,0.4,0.7,0.7c0.1,0.2-0.1,0.3-0.3,0.3h-3.3
				c-5.4,0-13.3-1.9-14.3-9.2c-1.7-12.5-5.6-19.8-12.2-20.1c-2.5-0.1-5.8-0.2-6.6,2.7v16.6c0,5.5-4.4,10-9.8,10h-3.3
				c-0.3,0-0.4-0.2-0.4-0.3c0-0.3,0.3-0.4,0.6-0.7c1.9-1.7,3.1-4.8,3.1-9v-38.8c0-3.6-0.9-7.1-3.1-9c-0.3-0.3-0.6-0.4-0.6-0.7
				c0-0.2,0.2-0.3,0.4-0.3h3.3C529.2,267.4,530.8,267.9,532.4,268.8z M537.2,293c7.1-0.7,16-3.4,17-11.8c0.8-6.5-2.9-10.7-9.8-10.7
				c-2.3,0-6.1,1.2-7.2,2.9V293z"/>
			<path class="st1" d="M614.7,326.1c-0.8-0.1-0.8-0.7-0.2-1c1.3-0.7,2-1.6,3.1-4l1.8-4.7l16.5-41.1c0.8-1.8-0.3-5.6-2.2-7.1
				c-0.1-0.1-0.3-0.3-0.3-0.3c0-0.2,0.2-0.4,0.4-0.4h3.7c3,0,7.3,2.3,9,7l16.9,42.1c1.3,3.5,3,7.5,5.3,8.6c0.8,0.4,0.7,1.1,0.3,1.1
				h-3.3c-3.5,0-9.9-1.6-11.9-6.7l-6.3-16.1c-4.1,1.3-12.5,3-13.9,3.6c-4.4,1.8-5,3.2-7,7.6c0,0-0.3,0-2.4,5.5
				c-0.3,0.8-0.7,1.4-1.1,2c-1.4,2.2-4,4-6.3,4c-0.3,0-0.5,0.1-0.8,0.1h-0.3L614.7,326.1z M631.9,301.1c-0.1,0.3,11.6-0.3,12.8-4.4
				l-5.5-14.9L631.9,301.1z"/>
			<path class="st1" d="M719.2,275.9c-0.2-2.6-0.9-6.1-3.1-7.7l-0.3-0.3c0-0.2,0.2-0.4,0.3-0.4h3.1c6.2,0,11.3,2.9,14.4,8.1
				l20.6,34.5v-34.2c0-6.3,4.7-8.1,7.7-8.4h2.3c0.2,0,0.3,0.3,0.3,0.4c0,0.1-0.2,0.3-0.3,0.3c-1.8,1.3-2.9,4.1-3.1,7.5V317
				c0,4.3,1,7.1,3,8.3c0.1,0.1,0.2,0.4,0.2,0.5c0,0.2-0.1,0.4-0.3,0.4h-2.9c-3.4-0.3-8-1.5-11.2-6.8l-23.8-39.3v37.7
				c0,6.3-4.7,8.1-7.7,8.4h-2.3c-0.2,0-0.3-0.3-0.3-0.4c0-0.1,0.2-0.3,0.3-0.3c1.8-1.3,2.9-4.1,3.1-7.5V275.9z"/>
			<path class="st1" d="M845.3,327.3c-15.7,0-28.5-13.7-28.5-30.6c0-16.8,12.8-30.5,28.5-30.5c6.6,0,14.9,2.9,19.6,9
				c3.2,4.2-2,10.7-6.1,9.3c-1.3-12.8-10.2-13.3-13.4-13.3c-10,0-17.5,11.1-17.5,25.5c0,14.5,7.6,25.9,17.5,25.9
				c6.7,0,13.8-6.3,12.6-13.6c-0.1-0.4,0.4-1,0.8-1c4.9,0,8,5.1,6.4,9.3C862.9,323.2,852.1,327.3,845.3,327.3z"/>
			<path class="st1" d="M917.2,325.9c0-0.3,0.3-0.4,0.6-0.7c1.9-1.7,3.1-4.8,3.1-9v-38.8c0-3.6-0.9-7.1-3.1-9
				c-0.3-0.3-0.6-0.4-0.6-0.7c0-0.2,0.2-0.3,0.4-0.3h29.5c5.6,0,7.8,4.3,6.6,7.4c-0.7,1.8-1.8,2-2.9,2.4c-0.9,0.3-1.4,0.3-1.6-0.4
				v-0.2c0-2-2-4.1-7.6-4.1h-10.9v20.1h8.4c3.9,0,7.2-0.2,8.6-2.6c2.7,1.5,1.4,7.6-2.9,7.6h-14.2v22.2h16.1c4.6,0,5.1-2.9,5-4.7
				c-0.1-1.3,2.9,0.3,2.6,5c-0.9,4-3.9,7.3-8.5,7.3c-5.3,0-10.2-4.2-21.3-2c-1,0.4-2,0.7-3.1,0.8c-0.3,0-0.4,0.1-3.9,0
				C917.3,326.2,917.2,326,917.2,325.9z"/>
		</g>
		<rect x="11.6" y="242.1" class="st1" width="370.5" height="3.8"/>
		<rect x="500.2" y="242.1" class="st1" width="597.4" height="3.8"/>
	</g>
</g>
<g>
</g>
<g>
</g>
<g>
</g>
<g>
</g>
<g>
</g>
<g>
</g>
</svg>
