<?xml version="1.0" encoding="utf-8"?>
<!-- Generator: Adobe Illustrator 27.8.0, SVG Export Plug-In . SVG Version: 6.00 Build 0)  -->
<svg version="1.1" id="Layer_1" xmlns="http://www.w3.org/2000/svg" xmlns:xlink="http://www.w3.org/1999/xlink" x="0px" y="0px"
	 viewBox="0 0 1221.2 443.7" style="enable-background:new 0 0 1221.2 443.7;" xml:space="preserve">
<style type="text/css">
	.st0{fill:#8DC63F;}
	.st1{fill:#0C3D60;}
	.st2{fill:#0B3C5F;}
</style>
<g>
	<path class="st0" d="M130.9,208.3v-0.2c-0.1,0-0.2,0-0.3,0c-55.4,0-100.4-40.5-100.4-90.4c0-49.9,44.9-90.4,100.4-90.4
		c55.4,0,100.3,40.5,100.3,90.4c0,1.3-0.1,2.7-0.2,4c-8.5,58.5-65.9,52.2-65.9,52.2c79.6,21.1,96.3-34.8,95.9-64.1
		c0.1,0,0.1-0.1,0.2-0.1c-0.1-0.9-0.2-1.9-0.3-2.8c-0.1-1.8-0.3-3.6-0.7-5.3C251.3,44.2,196.7,0,130.7,0C58.5,0,0,52.7,0,117.7
		c0,64.8,58.2,117.4,130,117.7v0.2c0.1,0,0.2,0,0.3,0c55.4,0,100.4,40.5,100.4,90.4s-44.9,90.4-100.4,90.4S30,375.9,30,326
		c0-1.3,0.1-2.7,0.2-4c8.5-58.5,65.9-52.2,65.9-52.2c-79.6-21.1-96.3,34.8-95.9,64.1C0.1,334,0.1,334,0,334c0.1,0.9,0.2,1.9,0.3,2.8
		c0.1,1.8,0.3,3.6,0.7,5.3c8.8,57.4,63.3,101.5,129.4,101.5C202.5,443.7,261,391,261,326C261,261.2,202.8,208.6,130.9,208.3z"/>
	<g>
		<path class="st1" d="M76.9,157.3c0,0,15.3-27.1,58.3-20.5c43,6.5,51.9,2.2,59.4,0.2c0,0-5.7,32.1-43.2,22.9
			C113.8,150.7,100,145.5,76.9,157.3z"/>
		<path class="st2" d="M186.1,291.1c0,0-15.3,27.1-58.3,20.5c-43-6.5-51.9-2.2-59.4-0.2c0,0,5.7-32.1,43.2-22.9
			C149.2,297.6,162.9,302.9,186.1,291.1z"/>
		<rect x="119.2" y="148.5" class="st1" width="22.7" height="151.5"/>
	</g>
	<path class="st1" d="M131.6,63.7c43.1,0,78.9,28.7,85,66.2c0.6-3.8,1-7.7,1-11.6c0-43-38.5-77.8-86-77.8c-47.5,0-86,34.8-86,77.8
		c0,3.9,0.3,7.8,1,11.6C52.8,92.4,88.5,63.7,131.6,63.7z"/>
	<path class="st1" d="M131.6,380.2c-43.1,0-78.9-28.7-85-66.2c-0.6,3.8-1,7.7-1,11.6c0,43,38.5,77.8,86,77.8s86-34.8,86-77.8
		c0-3.9-0.3-7.8-1-11.6C210.5,351.4,174.8,380.2,131.6,380.2z"/>
	<g>
		<g>
			<g>
				<path class="st0" d="M342.3,180.8c1,0,2.2,1.6,2,2.5c-1,6.7,0.6,13.1,4.7,19.4c3.5,5.3,11.4,12.1,26,12.1
					c19.2,0,25.6-10.2,25.6-20.7c0-31.7-71.2-28.6-71.2-69.7c0-25.8,24.3-40.1,48.9-40.1c11.9,0,28,5.7,36.4,15.9
					c7.6,9.8-4.7,25.1-14.3,21.7c2-12.7-12.9-27-26.2-27s-22.9,9.4-22.9,21.9c0,32.3,71.2,24.9,71.2,68.9
					c0,27.2-25.6,41.5-50.3,41.5c-16.6,0-43.8-10.4-46.2-22.5C323.9,193.3,330,180.8,342.3,180.8z"/>
				<path class="st0" d="M529.4,168.1v34.6c0,14.3,7.4,20,7.4,20s0.6,0.2,0.6,0.8c0,0.4-0.4,1-1,1h-7c-6.5,0-12.1-2.7-16-7.2v0.2
					c-8.6,5.7-21.1,9-32.7,9c-22.1,0.2-41.1-11.9-41.1-28.4c0-16.6,12.9-22.3,29.4-26c10.6-2.3,32.5-7.8,35.6-18.4
					c4.3-15.3-17.4-24.7-29.7-19c-9.2,4.3-11.5,15.7-11.5,23.5c0,2.2,0.8,2.3-2.3,2.2c-15.5-0.6-16.2-16.6-10.6-23.7
					c5.3-6.1,17-12.9,32.5-12.9c13.1,0,29.7,6.1,38.8,17C527.2,147.5,529.4,158.9,529.4,168.1z M508,170.6
					c-11.2,4.5-24.3,6.3-28,7.6c-9,2.9-17,9-17,19.8c0,11,9,19.4,20,19.4c9.8,0,20-5.7,25.1-14.7V170.6z"/>
				<path class="st0" d="M629.8,163.4c0-19.8-14.5-29.9-22.1-29.9c-4.9,0-15.1,1.6-21.3,15.1v54c0,12.1-9.6,21.7-21.3,21.7h-7
					c-0.6,0-1-0.6-1-1c0-0.6,0.6-0.8,0.6-0.8s7.4-5.9,7.4-20v-54.4c0-15.1-7.6-20-7.6-20s-0.6-0.4-0.6-0.8c0-0.4,0.4-1,1-1h7
					c5.7,0,11,2.3,14.7,6.1l0.2-0.2c9.8-5.9,21.5-8.4,33.1-8.4c17.4,0,38.4,14.1,38.4,38.2v40.5c0,14.5,7.4,20,7.4,20
					s0.6,0.2,0.6,0.8c0,0.4-0.4,1-1,1h-7c-11.7,0-21.3-9.6-21.3-21.7V163.4z"/>
				<path class="st0" d="M687.1,124.1c3.7,0,6.7,2.9,10.6,2.9c3.5,0,6.8-2.9,10.8-2.9c7.8,0,8,1.2,7.2,1.8
					c-4.3,3.3-7.2,10.8-7.2,19.8v73.6c-0.2,31.1-16.6,45-37.8,44.6c-25.6-0.4-22.9-20.4-18.6-15.7c5.1,5.5,11.4,4.1,15.3,4.1
					c6.5,0,19.6-7.8,19.8-33.1v-73.6c0-9-3.1-16.4-7.4-19.8C679.1,125.4,678.7,124.1,687.1,124.1z M685,96.5c0-6.1,25.4-6.1,25.4,0
					c0,6.1-5.7,15.1-12.7,15.1C690.6,111.5,685,102.5,685,96.5z"/>
				<path class="st0" d="M825.9,197.1c-0.6,19.2-23.5,29.9-43.4,29.9c-27.8,0-49.3-21.3-49.3-51.7c0-25.1,17.4-51.9,48.3-51.9
					c21.1,0,41.1,11.2,41.7,27.6c1,22.1-34.2,26-45.2,28c-6.9,1.2-16.8,7.8-19.2,12.7c2.7,16,12.1,25.6,23.9,25.6
					c12.3,0,25.2-11.4,25.2-21.3c0-4.5-1-9-3.3-12.3c1.2-0.4,2.7-0.6,3.9-0.6C815.9,183.2,825.7,189.4,825.9,197.1z M756.6,176.5
					c2.5-2.5,6.8-3.3,11.4-4.3c6.1-1.6,21.3-6.5,25.8-9.2c4.7-2.7,8-7.6,8-13.5c0-12.7-11.9-18.8-23.5-16.2
					C763.8,136.6,756.6,153.8,756.6,176.5z"/>
				<path class="st0" d="M931.7,197.1c-0.6,19.2-23.5,29.9-43.4,29.9c-27.8,0-49.3-21.3-49.3-51.7c0-25.1,17.4-51.9,48.3-51.9
					c21.1,0,41.1,11.2,41.7,27.6c1,22.1-34.2,26-45.2,28c-6.8,1.2-16.8,7.8-19.2,12.7c2.7,16,12.1,25.6,23.9,25.6
					c12.3,0,25.2-11.4,25.2-21.3c0-4.5-1-9-3.3-12.3c1.2-0.4,2.7-0.6,3.9-0.6C921.8,183.2,931.6,189.4,931.7,197.1z M862.5,176.5
					c2.5-2.5,6.8-3.3,11.4-4.3c6.1-1.6,21.3-6.5,25.8-9.2c4.7-2.7,8-7.6,8-13.5c0-12.7-11.9-18.8-23.5-16.2
					C869.7,136.6,862.5,153.8,862.5,176.5z"/>
				<path class="st0" d="M1041,127.4c-7.8,2.2-11.2,11.4-15.1,20.9l-24.3,63.2c-0.8,2-1.8,7,2.5,10.8c0.2,0.2,0.6,1,0.6,1.2
					c0,0.4-0.4,1-1,1l-7.4-0.2c-8.8-0.4-17.2-5.5-21.5-16.2l-21.9-57.9c-3.1-8.2-8.4-21.7-15.5-21.7c-0.4-0.2-1.6-0.6,0.2-2.2
					c1-0.8,2.9-1.2,10.2-1.2c15.9,0,22.5,11.4,27.8,24.7l16,46l22.9-57.7c3.9-9.2,12.5-12.9,18.4-12.9c6.7,0,6.3,0.2,7.6,1.4
					C1041,126.8,1041.1,127.2,1041,127.4z"/>
				<path class="st0" d="M1124.1,163.4c0-19.8-14.5-29.9-22.1-29.9c-4.9,0-15.1,1.6-21.3,15.1v54c0,12.1-9.6,21.7-21.3,21.7h-7
					c-0.6,0-1-0.6-1-1c0-0.6,0.6-0.8,0.6-0.8s7.4-5.9,7.4-20v-54.4c0-15.1-7.6-20-7.6-20s-0.6-0.4-0.6-0.8c0-0.4,0.4-1,1-1h7
					c5.7,0,11,2.3,14.7,6.1l0.2-0.2c9.8-5.9,21.5-8.4,33.1-8.4c17.4,0,38.4,14.1,38.4,38.2v40.5c0,14.5,7.4,20,7.4,20
					s0.6,0.2,0.6,0.8c0,0.4-0.4,1-1,1h-7c-11.7,0-21.3-9.6-21.3-21.7V163.4z"/>
				<path class="st0" d="M1210.2,223.3c0,0.4-0.4,1-1,1h-6.8c-11.9,0-21.3-9.6-21.3-21.3v-57.7c0-9-3.1-16.4-7.4-19.8
					c-0.6-0.4-1-1.8,7.4-1.8c3.7,0,6.8,2.9,10.8,2.9c3.5,0,6.7-2.9,10.6-2.9c7.6,0,8,1.2,7.2,1.8c-4.3,3.3-7.2,10.8-7.2,19.8v57.5
					c0,9,2.9,16.4,7.2,19.8C1209.8,222.7,1210.2,222.9,1210.2,223.3z M1179.1,96.1c0-6.1,25.4-6.1,25.4,0s-5.7,15.1-12.7,15.1
					C1184.8,111.1,1179.1,102.1,1179.1,96.1z"/>
			</g>
		</g>
		<g>
			<g>
				<path class="st1" d="M459.9,322.4c0.3,0.2,0.5,0.3,0.5,0.5c0,0.1-0.1,0.3-0.3,0.3h-2.7c-1.4,0-2.7-0.8-4-0.8
					c-1.4,0-2.5,0.8-4,0.8h-2.7c-0.2,0-0.3-0.1-0.3-0.3c0-0.2,0.2-0.3,0.5-0.5c1.6-1.4,2.5-3.9,2.5-7.3v-31.9
					c-0.1-2.8-0.8-5.5-2.5-7c-0.3-0.2-0.5-0.3-0.5-0.5c0-0.1,0.1-0.3,0.3-0.3h2.7c1.4,0,2.6,0.8,4,0.8c1.4,0,2.5-0.8,4-0.8h2.7
					c0.2,0,0.3,0.1,0.3,0.3c0,0.2-0.2,0.3-0.5,0.5c-1.7,1.5-2.5,4.2-2.5,7v31.9C457.3,318.5,458.3,321.1,459.9,322.4z"/>
				<path class="st1" d="M505.8,282.3c-0.1-2.1-0.8-5-2.5-6.3l-0.2-0.3c0-0.1,0.1-0.3,0.3-0.3h2.5c5.1,0,9.2,2.4,11.7,6.6l16.7,28.1
					v-27.8c0-5.1,3.8-6.6,6.3-6.8h1.8c0.1,0,0.3,0.2,0.3,0.3c0,0.1-0.1,0.2-0.2,0.3c-1.4,1.1-2.4,3.3-2.5,6.1v33.6
					c0,3.5,0.8,5.7,2.5,6.8c0.1,0.1,0.1,0.3,0.1,0.4c0,0.1-0.1,0.3-0.2,0.3H540c-2.7-0.2-6.5-1.2-9.2-5.5l-19.4-32v30.7
					c0,5.1-3.8,6.6-6.3,6.8h-1.8c-0.1,0-0.3-0.2-0.3-0.3c0-0.1,0.1-0.2,0.2-0.3c1.4-1.1,2.4-3.3,2.5-6.1V282.3z"/>
				<path class="st1" d="M590.3,308.1c0.3,0,0.8,0.5,0.7,0.9c-0.3,2.3,0.2,4.6,1.6,6.8c1.2,1.8,4,4.2,9.1,4.2c6.7,0,8.9-3.6,8.9-7.2
					c0-11.1-24.9-10-24.9-24.3c0-9,8.5-14,17.1-14c4.2,0,9.8,2,12.7,5.5c2.7,3.4-1.6,8.7-5,7.6c0.7-4.4-4.5-9.4-9.2-9.4
					c-4.6,0-8,3.3-8,7.6c0,11.3,24.9,8.7,24.9,24c0,9.5-8.9,14.5-17.6,14.5c-5.8,0-15.3-3.6-16.1-7.9
					C583.9,312.5,586,308.1,590.3,308.1z"/>
				<path class="st1" d="M701.7,276.1c-1.5,1.2-2.5,3.8-2.6,7v22.5c0,7.8-4,18.6-18.4,18.6c-13.5,0-18.4-9.9-18.4-18.7v-22
					c0-3.3-1.2-6.1-2.7-7.4c-0.1-0.1-0.2-0.2-0.2-0.3c0-0.1,0.1-0.3,0.3-0.3h2.6c4.4,0,7.9,3.6,8,8v22.1c0,8.8,5.4,14.4,11.5,14.4
					c5.9,0,11.5-5.4,11.5-14.3v-25.3c0-2.5,2.7-4.8,5.7-4.8h2.5c0.1,0,0.3,0.2,0.3,0.3C701.9,275.9,701.8,276,701.7,276.1z"/>
				<path class="st1" d="M749.9,276.5c1.9-1.3,6.4-2,9.8-2c8.6,0.1,16.8,4,16.3,12.4c-0.3,6-4.4,9.2-9.4,10.9
					c7.4,4.2,8.5,12.2,10.8,17.3c1.4,3.2,3.8,6,5.7,7.4c0.3,0.2,0.5,0.3,0.5,0.5c0.1,0.1-0.1,0.3-0.3,0.3h-2.7
					c-4.4,0-10.8-1.6-11.6-7.5c-1.4-10.2-4.6-16.1-9.9-16.3c-2-0.1-4.7-0.1-5.4,2.2v13.5c0,4.5-3.6,8.1-8,8.1h-2.7
					c-0.2,0-0.3-0.1-0.3-0.3c0-0.2,0.2-0.3,0.5-0.5c1.6-1.4,2.5-3.9,2.5-7.3v-31.6c0-2.9-0.8-5.7-2.5-7.3c-0.3-0.2-0.5-0.3-0.5-0.5
					c0-0.1,0.1-0.3,0.3-0.3h2.7C747.3,275.4,748.7,275.9,749.9,276.5z M753.9,296.3c5.7-0.5,13-2.8,13.9-9.6c0.6-5.3-2.3-8.7-8-8.7
					c-1.8,0-5,1-5.9,2.3V296.3z"/>
				<path class="st1" d="M816.9,323.2c-0.7-0.1-0.7-0.5-0.1-0.8c1-0.5,1.6-1.3,2.5-3.3l1.5-3.8l13.4-33.5c0.6-1.4-0.3-4.6-1.8-5.7
					c-0.1-0.1-0.2-0.2-0.2-0.3c0-0.1,0.1-0.3,0.3-0.3h3c2.5,0,5.9,1.8,7.3,5.7l13.7,34.2c1.1,2.9,2.5,6.1,4.3,7
					c0.7,0.3,0.5,0.9,0.2,0.9h-2.7c-2.9,0-8.1-1.3-9.7-5.5l-5.1-13.1c-3.3,1-10.2,2.5-11.3,2.9c-3.6,1.4-4.1,2.6-5.7,6.1
					c0,0-0.2,0-1.9,4.5c-0.2,0.6-0.5,1.2-0.9,1.6c-1.2,1.8-3.3,3.3-5.1,3.3c-0.2,0-0.4,0.1-0.7,0.1h-0.3L816.9,323.2z M830.9,302.8
					c-0.1,0.2,9.4-0.3,10.4-3.6l-4.4-12.2L830.9,302.8z"/>
				<path class="st1" d="M901.9,282.3c-0.1-2.1-0.8-5-2.5-6.3l-0.2-0.3c0-0.1,0.1-0.3,0.3-0.3h2.5c5.1,0,9.2,2.4,11.7,6.6l16.7,28.1
					v-27.8c0-5.1,3.8-6.6,6.3-6.8h1.8c0.1,0,0.3,0.2,0.3,0.3c0,0.1-0.1,0.2-0.2,0.3c-1.4,1.1-2.4,3.3-2.5,6.1v33.6
					c0,3.5,0.8,5.7,2.5,6.8c0.1,0.1,0.1,0.3,0.1,0.4c0,0.1-0.1,0.3-0.2,0.3h-2.4c-2.7-0.2-6.5-1.2-9.2-5.5l-19.4-32v30.7
					c0,5.1-3.8,6.6-6.3,6.8h-1.8c-0.1,0-0.3-0.2-0.3-0.3c0-0.1,0.1-0.2,0.2-0.3c1.4-1.1,2.4-3.3,2.5-6.1V282.3z"/>
				<path class="st1" d="M1004.5,324.1c-12.8,0-23.2-11.1-23.2-24.9c0-13.7,10.4-24.8,23.2-24.8c5.4,0,12.1,2.3,15.9,7.3
					c2.6,3.4-1.6,8.7-5,7.6c-1-10.4-8.3-10.9-10.9-10.9c-8.1,0-14.2,9-14.2,20.8c0,11.8,6.2,21.1,14.2,21.1
					c5.5,0,11.2-5.1,10.2-11.1c-0.1-0.3,0.3-0.8,0.6-0.8c4,0,6.5,4.2,5.2,7.6C1018.8,320.8,1010,324.1,1004.5,324.1z"/>
				<path class="st1" d="M1062.9,323c0-0.2,0.2-0.3,0.5-0.5c1.6-1.4,2.5-3.9,2.5-7.3v-31.6c0-2.9-0.8-5.7-2.5-7.3
					c-0.3-0.2-0.5-0.3-0.5-0.5c0-0.1,0.1-0.3,0.3-0.3h24c4.6,0,6.4,3.5,5.4,6c-0.5,1.4-1.5,1.6-2.4,1.9c-0.8,0.2-1.2,0.2-1.3-0.3
					v-0.1c0-1.6-1.6-3.3-6.1-3.3h-8.9v16.4h6.8c3.1,0,5.9-0.1,7-2.1c2.2,1.2,1.2,6.2-2.3,6.2h-11.5v18.1h13.1c3.8,0,4.2-2.4,4.1-3.8
					c-0.1-1,2.3,0.2,2.1,4c-0.8,3.3-3.2,5.9-6.9,5.9c-4.3,0-8.3-3.4-17.3-1.6c-0.8,0.3-1.6,0.5-2.5,0.6c-0.2,0-0.3,0.1-3.2,0
					C1063.1,323.3,1062.9,323.1,1062.9,323z"/>
			</g>
			<rect x="326.3" y="254.8" class="st1" width="301.4" height="3.1"/>
			<rect x="723.7" y="254.8" class="st1" width="486" height="3.1"/>
		</g>
	</g>
</g>
<g>
</g>
<g>
</g>
<g>
</g>
<g>
</g>
<g>
</g>
<g>
</g>
</svg>
